<?xml version="1.0" encoding="utf-8"?>
<!-- Generator: Adobe Illustrator 26.0.1, SVG Export Plug-In . SVG Version: 6.00 Build 0)  -->
<svg version="1.1" id="Layer_1" xmlns="http://www.w3.org/2000/svg" xmlns:xlink="http://www.w3.org/1999/xlink" x="0px" y="0px"
	 viewBox="0 0 512 512" style="enable-background:new 0 0 512 512;" xml:space="preserve">
<style type="text/css">
	.st0{fill:#FFFFFF;}
	.st1{fill:#3D6370;}
	.st2{fill:#9DAAA4;}
	.st3{fill:#557A82;}
	.st4{fill:#152D44;}
	.st5{fill:#9DAAA4;stroke:#9DAAA4;stroke-width:16;stroke-linecap:round;stroke-miterlimit:10;}
	.st6{fill:none;stroke:#152D44;stroke-width:28;stroke-miterlimit:10;}
</style>
<g>
	<path class="st0" d="M122.3,13.9l3.1,328.8H79.7c-19.3,0-35,15.6-35,34.7v11.7c0,19.2,15.7,34.7,35,34.7h135.1v46.9h207.9
		c0,0,53.3-6.2,53.3-56.5s0-98.5,0-98.5v-252c0,0-1.6-49.8-69.7-49.8S122.3,13.9,122.3,13.9z"/>
	<rect x="423.5" y="302.5" class="st1" width="60.5" height="27.2"/>
	<polygon class="st1" points="20.1,453.7 63.6,467.5 422.8,470.8 465.3,429 137.3,431.5 44.7,412.4 44.7,27.8 20.1,27.8 	"/>
	<rect x="76.7" y="24.8" class="st2" width="44.4" height="306.6"/>
	<rect x="44.7" y="24.8" class="st3" width="34.6" height="324.6"/>
	<rect x="409.5" y="156.1" class="st2" width="83.3" height="146.4"/>
	<path class="st4" d="M409.5,485.2H80.4c-44,0-79.8-35.6-79.8-79.3V79.3C0.6,35.6,36.4,0,80.4,0h329.1c44,0,79.8,35.6,79.8,79.3
		v49.9c13.2,3.4,22.7,15.2,22.7,29.3v169c0,14-9.7,25.9-22.7,29.3V406C489.3,449.7,453.5,485.2,409.5,485.2z M80.4,27.8
		c-28.6,0-51.8,23.1-51.8,51.4V406c0,28.4,23.2,51.4,51.8,51.4h329.1c28.6,0,51.8-23.1,51.8-51.4v-49.4l-54,0l0-26.8h74.2
		c1.3,0,2.4-1.1,2.4-2.4v-169c0-1.3-1-2.3-2.2-2.4l-20.5,0V79.3c0-28.4-23.2-51.4-51.8-51.4H80.4z"/>
	<path class="st4" d="M427,126.7H208.9c-4.2,0-7.6-3.4-7.6-7.5V99.5c0-4.2,3.4-7.5,7.6-7.5h183v-78h35V126.7z"/>
	<path class="st4" d="M418.6,356.6H111V13.9h28v314.9h251.5c2.7,0,4.9-2.2,4.9-4.9V189.8c0-3.2-2.6-5.9-5.9-5.9H222.8
		c-2.7,0-4.9-2.2-4.9-4.9V161c0-2.7,2.2-4.9,4.9-4.9h195.7c2.7,0,4.9,2.2,4.9,4.9v190.7C423.5,354.4,421.3,356.6,418.6,356.6z"/>
	<path class="st4" d="M409.5,274H208.9c-4.2,0-7.6-3.4-7.6-7.5v-19.7c0-4.2,3.4-7.5,7.6-7.5h200.6V274z"/>
	<line class="st5" x1="76.7" y1="383.3" x2="440.2" y2="383.3"/>
	<path class="st6" d="M142.8,391.4v106.2c0,0.4,0.5,0.5,0.7,0.3l34.3-32.1l31.6,32c0.3,0.3,0.7,0.1,0.7-0.3V391.4"/>
	<path class="st6" d="M465.3,423.8H79.7c-19.3,0-35-15.6-35-34.7v-11.7c0-19.2,15.7-34.7,35-34.7h45.7l-3.1-328.8"/>
	<path class="st2" d="M146.6,391.4v94.2c0,0.3,0.4,0.5,0.6,0.3l30.4-28.5l28.1,28.4c0.2,0.2,0.7,0.1,0.7-0.2v-94.1"/>
</g>
</svg>
